<svg version="1.2" xmlns="http://www.w3.org/2000/svg" viewBox="0 0 945 755" width="945" height="755">
	<title>SNES</title>
	<style>
		.s0 { fill: #000000;stroke: #6728bd;stroke-miterlimit:100;stroke-width: 15 } 
		.s1 { fill: #6728bd } 
	</style>
	<g id="SNES">
		<path id="Form 1" class="s0" d="m0 170h945v416h-945z"/>
		<g id="Share/Options">
			<path id="Options" class="s1" d="m519.6 524.7c-9 6.5-21.4 4.5-28-4.4-6.5-9-4.5-21.4 4.5-28 8.9-6.5 21.4-4.5 27.9 4.5 6.5 8.9 4.5 21.4-4.4 27.9zm64.7-47c-9 6.5-21.4 4.5-28-4.5-6.5-8.9-4.5-21.4 4.5-27.9 8.9-6.5 21.4-4.5 27.9 4.4 6.5 9 4.5 21.4-4.4 28zm-88.2 14.6l64.7-47 23.5 32.4-64.7 47z"/>
			<path id="Share" class="s1" d="m385.6 524.7c-9 6.5-21.4 4.5-28-4.4-6.5-9-4.5-21.4 4.5-28 8.9-6.5 21.4-4.5 27.9 4.5 6.5 8.9 4.5 21.4-4.4 27.9zm64.7-47c-9 6.5-21.4 4.5-28-4.5-6.5-8.9-4.5-21.4 4.5-27.9 8.9-6.5 21.4-4.5 27.9 4.4 6.5 9 4.5 21.4-4.4 28zm-88.2 14.6l64.7-47 23.5 32.4-64.7 47z"/>
		</g>
		<g id="Faces">
			<path id="S" class="s1" d="m666 462c-26.5 0-48-21.5-48-48 0-26.5 21.5-48 48-48 26.5 0 48 21.5 48 48 0 26.5-21.5 48-48 48z"/>
			<path id="X" class="s1" d="m753 549c-26.5 0-48-21.5-48-48 0-26.5 21.5-48 48-48 26.5 0 48 21.5 48 48 0 26.5-21.5 48-48 48z"/>
			<path id="O" class="s1" d="m840 462c-26.5 0-48-21.5-48-48 0-26.5 21.5-48 48-48 26.5 0 48 21.5 48 48 0 26.5-21.5 48-48 48z"/>
			<path id="T" class="s1" d="m753 375c-26.5 0-48-21.5-48-48 0-26.5 21.5-48 48-48 26.5 0 48 21.5 48 48 0 26.5-21.5 48-48 48z"/>
		</g>
		<g id="Dpad">
			<path id="Left" fill-rule="evenodd" class="s1" d="m77 377h69.9l37 37 0.1-0.1v0.4l-0.1-0.1-36.8 36.8h-70.1c0 0-7 0-14-6-6-7-6-14-6-14v-34c0 0 0-7 6-14 7-6 14-6 14-6z"/>
			<path id="Down" fill-rule="evenodd" class="s1" d="m155 529v-69.9l37-37-0.1-0.1h0.4l-0.1 0.1 36.8 36.8v70.1c0 0 0 7-6 14-7 6-14 6-14 6h-34c0 0-7 0-14-6-6-7-6-14-6-14z"/>
			<path id="Right" fill-rule="evenodd" class="s1" d="m321 383c6 7 6 14 6 14v34c0 0 0 7-6 14-7 6-14 6-14 6h-70.1l-36.8-36.8-0.1 0.1v-0.4l0.1 0.1 37-37h69.9c0 0 7 0 14 6z"/>
			<path id="Up" fill-rule="evenodd" class="s1" d="m161 285c7-6 14-6 14-6h34c0 0 7 0 14 6 6 7 6 14 6 14v70.1l-36.8 36.8 0.1 0.1h-0.4l0.1-0.1-37-37v-69.9c0 0 0-7 6-14z"/>
		</g>
		<g id="Trigger/ Bumper">
			<path id="R1/R2" class="s1" d="m649 248c-9.4 0-17-7.6-17-17 0-9.4 7.6-17 17-17 9.4 0 17 7.6 17 17 0 9.4-7.6 17-17 17zm0-34h208v34h-208zm208 34c-9.4 0-17-7.6-17-17 0-9.4 7.6-17 17-17 9.4 0 17 7.6 17 17 0 9.4-7.6 17-17 17z"/>
			<path id="L1/L2" class="s1" d="m88 248c-9.4 0-17-7.6-17-17 0-9.4 7.6-17 17-17 9.4 0 17 7.6 17 17 0 9.4-7.6 17-17 17zm0-34h208v34h-208zm208 34c-9.4 0-17-7.6-17-17 0-9.4 7.6-17 17-17 9.4 0 17 7.6 17 17 0 9.4-7.6 17-17 17z"/>
		</g>
	</g>
</svg>