<svg version="1.2" xmlns="http://www.w3.org/2000/svg" viewBox="0 0 945 755" width="945" height="755">
	<title>disconnected-svg</title>
	<style>
		.s0 { fill: #000000;stroke: #ff0000;stroke-miterlimit:100;stroke-width: 15 } 
		.s1 { fill: #4e4e4e } 
		.s2 { fill: #ff0000 } 
	</style>
	<g id="disconnected">
		<path id="Form 1" class="s0" d="m15 176h915v402.8h-915z"/>
		<g id="Share/Options">
			<path id="Options" class="s1" d="m519.6 524.7c-9 6.5-21.4 4.5-28-4.4-6.5-9-4.5-21.4 4.5-28 8.9-6.5 21.4-4.5 27.9 4.5 6.5 8.9 4.5 21.4-4.4 27.9zm64.7-47c-9 6.5-21.4 4.5-28-4.5-6.5-8.9-4.5-21.4 4.5-27.9 8.9-6.5 21.4-4.5 27.9 4.4 6.5 9 4.5 21.4-4.4 28zm-88.2 14.6l64.7-47 23.5 32.4-64.7 47z"/>
			<path id="Share" class="s1" d="m385.6 524.7c-9 6.5-21.4 4.5-28-4.4-6.5-9-4.5-21.4 4.5-28 8.9-6.5 21.4-4.5 27.9 4.5 6.5 8.9 4.5 21.4-4.4 27.9zm64.7-47c-9 6.5-21.4 4.5-28-4.5-6.5-8.9-4.5-21.4 4.5-27.9 8.9-6.5 21.4-4.5 27.9 4.4 6.5 9 4.5 21.4-4.4 28zm-88.2 14.6l64.7-47 23.5 32.4-64.7 47z"/>
		</g>
		<g id="Faces">
			<path id="S" class="s1" d="m666 462c-26.5 0-48-21.5-48-48 0-26.5 21.5-48 48-48 26.5 0 48 21.5 48 48 0 26.5-21.5 48-48 48z"/>
			<path id="X" class="s1" d="m753 549c-26.5 0-48-21.5-48-48 0-26.5 21.5-48 48-48 26.5 0 48 21.5 48 48 0 26.5-21.5 48-48 48z"/>
			<path id="O" class="s1" d="m840 462c-26.5 0-48-21.5-48-48 0-26.5 21.5-48 48-48 26.5 0 48 21.5 48 48 0 26.5-21.5 48-48 48z"/>
			<path id="T" class="s1" d="m753 375c-26.5 0-48-21.5-48-48 0-26.5 21.5-48 48-48 26.5 0 48 21.5 48 48 0 26.5-21.5 48-48 48z"/>
		</g>
		<g id="Dpad">
			<path id="Left" fill-rule="evenodd" class="s1" d="m77 377h69.9l37 37 0.1-0.1v0.4l-0.1-0.1-36.8 36.8h-70.1c0 0-7 0-14-6-6-7-6-14-6-14v-34c0 0 0-7 6-14 7-6 14-6 14-6z"/>
			<path id="Down" fill-rule="evenodd" class="s1" d="m155 529v-69.9l37-37-0.1-0.1h0.4l-0.1 0.1 36.8 36.8v70.1c0 0 0 7-6 14-7 6-14 6-14 6h-34c0 0-7 0-14-6-6-7-6-14-6-14z"/>
			<path id="Right" fill-rule="evenodd" class="s1" d="m321 383c6 7 6 14 6 14v34c0 0 0 7-6 14-7 6-14 6-14 6h-70.1l-36.8-36.8-0.1 0.1v-0.4l0.1 0.1 37-37h69.9c0 0 7 0 14 6z"/>
			<path id="Up" fill-rule="evenodd" class="s1" d="m161 285c7-6 14-6 14-6h34c0 0 7 0 14 6 6 7 6 14 6 14v70.1l-36.8 36.8 0.1 0.1h-0.4l0.1-0.1-37-37v-69.9c0 0 0-7 6-14z"/>
		</g>
		<g id="Trigger/ Bumper">
			<path id="R1/R2" class="s1" d="m649 248c-9.4 0-17-7.6-17-17 0-9.4 7.6-17 17-17 9.4 0 17 7.6 17 17 0 9.4-7.6 17-17 17zm0-34h208v34h-208zm208 34c-9.4 0-17-7.6-17-17 0-9.4 7.6-17 17-17 9.4 0 17 7.6 17 17 0 9.4-7.6 17-17 17z"/>
			<path id="L1/L2" class="s1" d="m88 248c-9.4 0-17-7.6-17-17 0-9.4 7.6-17 17-17 9.4 0 17 7.6 17 17 0 9.4-7.6 17-17 17zm0-34h208v34h-208zm208 34c-9.4 0-17-7.6-17-17 0-9.4 7.6-17 17-17 9.4 0 17 7.6 17 17 0 9.4-7.6 17-17 17z"/>
		</g>
		<path id="disconnected" fill-rule="evenodd" class="s2" d="m105 417h-34.3q-2.3 0-4-1.7-1.7-1.7-1.7-4v-68.7q0-2.3 1.7-4.1 1.7-1.7 4-1.7h34.3q6.9 0 12.1 5.2 5.1 5.1 5.1 12v45.8q0 6.9-5.1 12-5.2 5.2-12.1 5.2zm5.8-17.2v-45.8q0-2.3-1.7-4-1.8-1.7-4.1-1.7h-28.6v57.2h28.6q2.3 0 4.1-1.7 1.7-1.7 1.7-4zm63 17.2h-22.9q-2.3 0-4.1-1.7-1.7-1.7-1.7-4 0-2.3 1.7-4 1.8-1.8 4.1-1.8h5.7v-57.2h-5.7q-2.3 0-4.1-1.7-1.7-1.8-1.7-4 0-2.3 1.7-4.1 1.8-1.7 4.1-1.7h22.9q2.3 0 4 1.7 1.7 1.8 1.7 4.1 0 2.2-1.7 4-1.7 1.7-4 1.7h-5.8v57.2h5.8q2.3 0 4 1.8 1.7 1.7 1.7 4 0 2.3-1.7 4-1.7 1.7-4 1.7zm68.7-34.4h-22.9q-8 0-12.6-4.5-4.6-4.6-4.6-12.6v-11.5q0-6.9 4.6-12 4.6-5.2 12.6-5.2h22.9q6.9 0 12 5.2 5.2 5.1 5.2 12 0 2.3-1.8 4-1.7 1.7-4 1.7-2.3 0-4-1.7-1.7-1.7-1.7-4 0-2.3-1.7-4-1.7-1.7-4-1.7h-22.9q-2.3 0-4 1.7-1.7 1.7-1.7 4v11.5q0 2.2 1.7 4 1.7 1.7 4 1.7h22.9q6.9 0 12 5.1 5.2 5.2 5.2 12.1v11.4q0 8-5.2 12.6-5.1 4.6-12 4.6h-22.9q-6.9 0-12-5.2-5.2-5.1-5.2-12 0-2.3 1.7-4 1.7-1.7 4-1.7 2.3 0 4 1.7 1.8 1.7 1.8 4 0 2.3 1.7 4 1.7 1.7 4 1.7h22.9q2.3 0 4-1.7 1.7-1.7 1.7-4v-11.4q0-2.3-1.7-4-1.7-1.8-4-1.8zm68.7 34.4h-22.9q-6.9 0-12-5.2-5.2-5.1-5.2-12v-45.8q0-6.9 5.2-12 5.1-5.2 12-5.2h22.9q6.9 0 12 5.2 5.2 5.1 5.2 12 0 2.3-1.7 4-1.8 1.7-4 1.7-2.3 0-4-1.7-1.8-1.7-1.8-4 0-2.3-1.7-4-1.7-1.7-4-1.7h-22.9q-2.3 0-4 1.7-1.7 1.7-1.7 4v45.8q0 2.3 1.7 4 1.7 1.7 4 1.7h22.9q2.3 0 4-1.7 1.7-1.7 1.7-4 0-2.3 1.8-4 1.7-1.7 4-1.7 2.2 0 4 1.7 1.7 1.7 1.7 4 0 6.9-5.2 12-5.1 5.2-12 5.2zm68.7 0h-22.9q-6.9 0-12-5.2-5.2-5.1-5.2-12v-45.8q0-6.9 5.2-12 5.1-5.2 12-5.2h22.9q6.9 0 12.1 5.2 5.1 5.1 5.1 12v45.8q0 6.9-5.1 12-5.2 5.2-12.1 5.2zm5.8-17.2v-45.8q0-2.3-1.8-4-1.7-1.7-4-1.7h-22.9q-2.3 0-4 1.7-1.7 1.7-1.7 4v45.8q0 2.3 1.7 4 1.7 1.7 4 1.7h22.9q2.3 0 4-1.7 1.8-1.7 1.8-4zm28.6 17.2q-2.3 0-4-1.7-1.7-1.7-1.7-4v-68.7q0-2.3 1.7-4.1 1.7-1.7 4-1.7 2.3 0 4 1.7l36.1 36.1v-32q0-2.3 1.7-4.1 1.7-1.7 4-1.7 2.3 0 4 1.7 1.7 1.8 1.7 4.1v68.7q0 2.3-1.7 4-1.7 1.7-4 1.7-2.3 0-4-1.7-1.7-1.7-1.7-4v-20.6l-34.4-34.4v55q0 2.3-1.7 4-1.7 1.7-4 1.7zm68.7 0q-2.3 0-4-1.7-1.7-1.7-1.7-4v-68.7q0-2.3 1.7-4.1 1.7-1.7 4-1.7 2.3 0 4 1.7l36.1 36.1v-32q0-2.3 1.7-4.1 1.7-1.7 4-1.7 2.3 0 4 1.7 1.8 1.8 1.8 4.1v68.7q0 2.3-1.8 4-1.7 1.7-4 1.7-2.3 0-4-1.7-1.7-1.7-1.7-4v-20.6l-34.4-34.4v55q0 2.3-1.7 4-1.7 1.7-4 1.7zm103.1-34.4h-28.6v22.9h40q2.3 0 4.1 1.8 1.7 1.7 1.7 4 0 2.3-1.7 4-1.8 1.7-4.1 1.7h-45.8q-2.3 0-4-1.7-1.7-1.7-1.7-4v-68.7q0-2.3 1.7-4.1 1.7-1.7 4-1.7h45.8q2.3 0 4.1 1.7 1.7 1.8 1.7 4.1 0 2.2-1.7 4-1.8 1.7-4.1 1.7h-40v22.9h28.6q2.3 0 4 1.7 1.7 1.7 1.7 4 0 2.3-1.7 4-1.7 1.7-4 1.7zm68.7 34.4h-22.9q-6.9 0-12-5.2-5.2-5.1-5.2-12v-45.8q0-6.9 5.2-12 5.1-5.2 12-5.2h22.9q6.9 0 12 5.2 5.2 5.1 5.2 12 0 2.3-1.7 4-1.7 1.7-4 1.7-2.3 0-4-1.7-1.8-1.7-1.8-4 0-2.3-1.7-4-1.7-1.7-4-1.7h-22.9q-2.3 0-4 1.7-1.7 1.7-1.7 4v45.8q0 2.3 1.7 4 1.7 1.7 4 1.7h22.9q2.3 0 4-1.7 1.7-1.7 1.7-4 0-2.3 1.8-4 1.7-1.7 4-1.7 2.3 0 4 1.7 1.7 1.7 1.7 4 0 6.9-5.2 12-5.1 5.2-12 5.2zm51.6-68.7h-17.2q-2.3 0-4-1.7-1.8-1.8-1.8-4 0-2.3 1.8-4.1 1.7-1.7 4-1.7h45.8q2.3 0 4 1.7 1.7 1.8 1.7 4.1 0 2.2-1.7 4-1.7 1.7-4 1.7h-17.2v63q0 2.3-1.7 4-1.7 1.7-4 1.7-2.3 0-4-1.7-1.7-1.7-1.7-4zm85.9 34.3h-28.7v22.9h40.1q2.3 0 4 1.8 1.7 1.7 1.7 4 0 2.3-1.7 4-1.7 1.7-4 1.7h-45.8q-2.3 0-4-1.7-1.7-1.7-1.7-4v-68.8q0-2.2 1.7-4 1.7-1.7 4-1.7h45.8q2.3 0 4 1.7 1.7 1.8 1.7 4 0 2.3-1.7 4.1-1.7 1.7-4 1.7h-40.1v22.9h28.7q2.2 0 4 1.7 1.7 1.7 1.7 4 0 2.3-1.7 4-1.8 1.7-4 1.7zm68.7 34.4h-34.4q-2.3 0-4-1.7-1.7-1.7-1.7-4v-68.8q0-2.2 1.7-4 1.7-1.7 4-1.7h34.4q6.8 0 12 5.2 5.2 5.1 5.2 12v45.8q0 6.9-5.2 12-5.2 5.2-12 5.2zm5.7-17.2v-45.8q0-2.3-1.7-4-1.7-1.7-4-1.7h-28.7v57.2h28.7q2.3 0 4-1.7 1.7-1.7 1.7-4z"/>
	</g>
</svg>
