<svg version="1.2" xmlns="http://www.w3.org/2000/svg" viewBox="0 0 945 755" width="945" height="755">
	<title>SNES</title>
	<style>
		.s0 { fill: #fffc39 } 
	</style>
	<g id="SNES Press">
		<g id="Share/Options">
			<path id="Share" class="s0" d="m385.6 524.7c-9 6.5-21.4 4.5-28-4.4-6.5-9-4.5-21.4 4.5-28 8.9-6.5 21.4-4.5 27.9 4.5 6.5 8.9 4.5 21.4-4.4 27.9zm64.7-47c-9 6.5-21.4 4.5-28-4.5-6.5-8.9-4.5-21.4 4.5-27.9 8.9-6.5 21.4-4.5 27.9 4.4 6.5 9 4.5 21.4-4.4 28zm-88.2 14.6l64.7-47 23.5 32.4-64.7 47z"/>
		</g>
	</g>
</svg>